PathFileType	4	(X/Y/Z)	c:/Users/goper/Files/vsCode/490R/osim_files/C04/C04_Fast_01.trc
DataRate	CameraRate	NumFrames	NumMarkers	Units                	OrigDataRate	OrigDataStartFrame	OrigNumFrames
250.00	250.00	10	36	mm	250.0	1484	2373
                Frame#	Time	LPSIS			LASIS			LTH1			LTH2			LTH3			LTH4			LLFE			LMFE			LSH1			LSH2			LSH3			LSH4			LLMAL			LMMAL			LCAL			LMTP5			LTOE			LMTP1			RPSIS			RASIS			RTH1			RTH2			RTH3			RTH4			RLFE			RMFE			RSH1			RSH2			RSH3			RSH4			RLMAL			RMMAL			RCAL			RMTP1			RTOE			RMTP5		
		X1	Y1	Z1	X2	Y2	Z2	X3	Y3	Z3	X4	Y4	Z4	X5	Y5	Z5	X6	Y6	Z6	X7	Y7	Z7	X8	Y8	Z8	X9	Y9	Z9	X10	Y10	Z10	X11	Y11	Z11	X12	Y12	Z12	X13	Y13	Z13	X14	Y14	Z14	X15	Y15	Z15	X16	Y16	Z16	X17	Y17	Z17	X18	Y18	Z18	X19	Y19	Z19	X20	Y20	Z20	X21	Y21	Z21	X22	Y22	Z22	X23	Y23	Z23	X24	Y24	Z24	X25	Y25	Z25	X26	Y26	Z26	X27	Y27	Z27	X28	Y28	Z28	X29	Y29	Z29	X30	Y30	Z30	X31	Y31	Z31	X32	Y32	Z32	X33	Y33	Z33	X34	Y34	Z34	X35	Y35	Z35	X36	Y36	Z36

1484	5.93200	-2054.70630	964.16681	220.86194	0.00000	0.00000	0.00000	-2234.08911	725.97357	360.20209	0.00000	0.00000	0.00000	-2171.59229	690.09497	352.06726	0.00000	0.00000	0.00000	-2375.17969	466.55286	310.28220	0.00000	0.00000	0.00000	-2370.90479	368.96631	320.21323	0.00000	0.00000	0.00000	0.00000	0.00000	0.00000	-2306.18628	322.16315	315.70319	-2385.86450	79.92814	299.86804	-2382.22070	111.13223	213.12126	-2335.43677	40.06873	241.76303	-2524.23145	67.12534	323.18277	-2538.52124	106.01138	277.04251	-2529.70337	70.10429	224.12791	-2057.45435	969.33643	146.02725	0.00000	0.00000	0.00000	-2083.48560	723.76971	3.34644	-2077.06128	660.29773	24.18201	-2151.76709	717.95007	9.98922	-2153.54761	657.52911	25.97567	-2079.64990	445.27811	73.21718	-2077.93042	447.85944	178.91597	-2032.53528	280.80768	59.10553	0.00000	0.00000	0.00000	0.00000	0.00000	0.00000	-1974.35132	334.53137	58.51088	-1937.42273	78.98926	110.20050	-1938.66113	93.75368	199.67514	-1862.31836	61.52423	148.89355	-2061.44971	21.51523	208.75726	-2093.88794	37.06147	174.64925	-2065.83813	10.51144	109.35022
1485	5.93600	-2060.19214	963.55457	221.14282	0.00000	0.00000	0.00000	-2238.81055	724.69269	360.19202	0.00000	0.00000	0.00000	-2176.42603	689.11810	351.97391	0.00000	0.00000	0.00000	-2380.66528	465.04745	309.81995	0.00000	0.00000	0.00000	-2378.47925	367.70224	319.53265	0.00000	0.00000	0.00000	0.00000	0.00000	0.00000	-2312.82324	320.62259	314.94540	-2399.17603	79.60470	299.77582	-2395.84033	110.03701	212.75113	-2348.74146	38.67632	242.30455	-2537.77344	70.11325	321.99786	-2551.05420	109.34803	275.58524	-2542.53027	73.11504	222.78801	-2062.66870	968.71887	146.36703	0.00000	0.00000	0.00000	-2087.58813	723.53448	3.54594	0.00000	0.00000	0.00000	-2155.88647	717.41180	9.93770	-2157.43848	656.94141	25.99997	-2082.61475	444.99878	73.27053	-2081.22388	447.58252	178.90094	-2034.33838	280.58835	59.11155	0.00000	0.00000	0.00000	0.00000	0.00000	0.00000	-1976.55920	334.91791	58.50747	-1937.25452	82.00256	108.90900	-1939.19177	94.29624	199.61818	-1862.63599	62.41375	148.88866	-2061.61646	21.48650	208.73203	-2093.99585	36.90459	174.67776	-2065.81665	10.51766	109.32588
1486	5.94000	-2066.21338	962.97400	221.45284	0.00000	0.00000	0.00000	-2243.55225	723.61810	360.12222	0.00000	0.00000	0.00000	-2181.29492	688.13086	351.95221	0.00000	0.00000	0.00000	-2386.20508	463.51138	309.33151	0.00000	0.00000	0.00000	-2385.70996	366.67969	318.93887	0.00000	0.00000	0.00000	0.00000	0.00000	0.00000	-2320.15039	319.09940	314.92688	-2412.13892	79.41158	299.61908	-2418.12891	105.77536	214.93706	-2362.80127	36.78031	242.10847	-2550.50464	73.22410	320.89389	-2563.81250	112.70532	274.03766	-2554.90796	75.99144	221.35168	-2067.91968	968.10443	146.69354	0.00000	0.00000	0.00000	-2091.78101	723.27808	3.75658	0.00000	0.00000	0.00000	-2160.00195	716.91559	10.00338	-2161.36426	656.38440	25.97560	-2085.69604	444.67981	73.23724	-2084.45117	447.26968	178.84663	-2036.23889	280.41428	59.09179	0.00000	0.00000	0.00000	0.00000	0.00000	0.00000	-1978.71118	335.34988	58.51366	-1937.67871	82.53310	108.74221	-1939.64197	95.03790	199.48566	-1862.98047	63.39133	148.86162	-2061.47437	21.58346	208.78635	-2094.12451	36.76153	174.70601	-2065.83765	10.49560	109.30647
1487	5.94400	-2070.79419	962.41370	221.80920	0.00000	0.00000	0.00000	-2248.34277	722.48230	360.08054	0.00000	0.00000	0.00000	-2188.14966	686.78308	352.58707	0.00000	0.00000	0.00000	-2391.59106	462.09464	308.86255	0.00000	0.00000	0.00000	-2393.09009	365.45126	318.24210	-2403.31812	335.53799	355.79437	0.00000	0.00000	0.00000	0.00000	0.00000	0.00000	-2424.63452	79.41925	299.37097	-2428.28125	106.25891	214.36385	-2375.73145	35.68534	242.32381	-2562.98364	76.24016	319.79886	-2574.69629	115.82921	272.72293	-2556.55591	84.08680	214.29483	-2073.14673	967.51654	146.99872	0.00000	0.00000	0.00000	-2096.01514	723.05133	3.98340	-2086.61011	663.10339	19.65336	-2164.33057	716.40015	10.09810	-2165.38623	655.92194	25.91313	-2088.92090	444.39575	73.30913	-2087.91748	446.96851	178.84009	-2038.14551	280.21362	59.12010	0.00000	0.00000	0.00000	0.00000	0.00000	0.00000	-1981.07520	335.79797	58.48021	-1938.19617	83.18848	108.64474	-1940.33521	95.63458	199.41872	-1863.49304	64.39925	148.85419	-2061.56787	21.65632	208.79134	-2094.19043	36.68235	174.73253	-2065.85181	10.51797	109.33930
1488	5.94800	-2076.31055	961.76947	222.13200	0.00000	0.00000	0.00000	-2253.38867	721.44012	360.00998	0.00000	0.00000	0.00000	-2191.04956	686.34448	351.90842	0.00000	0.00000	0.00000	-2397.23608	460.62729	308.40613	0.00000	0.00000	0.00000	-2392.09888	369.80887	320.85846	-2411.29346	333.59647	356.06979	0.00000	0.00000	0.00000	0.00000	0.00000	0.00000	-2436.66040	79.57653	299.10669	-2439.12329	106.30675	213.96886	-2388.30981	34.78814	242.43619	-2575.02734	79.20182	318.39282	-2585.86206	118.92912	271.16162	-2567.97070	86.97375	212.90550	-2078.37988	966.89447	147.29549	0.00000	0.00000	0.00000	-2100.31152	722.86084	4.17494	0.00000	0.00000	0.00000	-2168.67310	715.85303	10.14534	-2169.46899	655.35022	25.89321	-2092.06641	444.13748	73.29887	-2091.56787	446.65295	178.81337	-2040.25403	280.04257	59.07852	0.00000	0.00000	0.00000	0.00000	0.00000	0.00000	-1983.47327	336.29224	58.47518	-1938.67395	83.88295	108.51337	-1941.00208	96.33748	199.33093	-1863.80151	65.55132	148.78209	-2061.75049	21.66953	208.70435	-2094.37329	36.65007	174.67326	-2065.88135	10.49007	109.30549
1489	5.95200	-2081.77271	961.13794	222.41537	0.00000	0.00000	0.00000	-2258.49561	720.31244	359.93964	0.00000	0.00000	0.00000	-2196.03003	685.49176	351.94308	0.00000	0.00000	0.00000	-2402.52075	459.21759	308.00034	0.00000	0.00000	0.00000	-2398.78101	369.05075	320.17474	-2418.62378	332.01303	356.54385	0.00000	0.00000	0.00000	0.00000	0.00000	0.00000	-2448.22192	79.86673	298.65613	-2449.65356	106.47375	213.50771	-2400.25171	34.09885	242.37309	-2586.61841	82.11348	317.06308	-2596.97583	121.98716	269.68030	-2579.47729	89.41509	211.89764	-2083.66748	966.31097	147.58543	0.00000	0.00000	0.00000	-2104.65869	722.62396	4.43798	0.00000	0.00000	0.00000	-2173.01245	715.33374	10.19148	-2173.64404	654.78119	25.92322	-2095.42212	443.87506	73.31768	-2095.31689	446.33826	178.74774	-2042.34546	279.83020	59.08362	0.00000	0.00000	0.00000	0.00000	0.00000	0.00000	-1986.03296	336.74347	58.45964	-1939.11792	84.56977	108.41297	-1941.45190	97.21929	199.12981	-1864.19214	66.75028	148.71661	-2061.91479	21.76731	208.66515	-2094.46582	36.67426	174.60738	-2065.87671	10.46578	109.33170
1490	5.95600	-2087.12964	960.50427	222.67674	0.00000	0.00000	0.00000	-2263.53296	719.53796	359.90720	0.00000	0.00000	0.00000	-2200.84473	684.77258	351.96710	0.00000	0.00000	0.00000	-2408.01392	457.74084	307.60922	0.00000	0.00000	0.00000	-2398.84277	371.32758	323.75113	0.00000	0.00000	0.00000	0.00000	0.00000	0.00000	-2355.70239	311.90112	312.47333	-2459.10132	80.18056	298.18933	-2459.92065	106.53008	212.96332	-2404.25073	36.37366	244.98141	-2597.58374	84.82746	315.71722	-2606.80005	124.57330	268.26724	-2590.35229	91.60384	210.76100	-2088.98218	965.67902	147.93613	0.00000	0.00000	0.00000	-2109.19727	722.35760	4.61922	0.00000	0.00000	0.00000	-2177.48535	714.81720	10.30989	-2177.97607	654.17792	25.92756	-2098.92554	443.56842	73.35498	-2099.23511	445.97861	178.66513	-2044.48767	279.66022	59.03330	0.00000	0.00000	0.00000	0.00000	0.00000	0.00000	-1988.75122	337.20813	58.44663	-1939.85095	85.18834	108.35009	-1942.24695	97.98314	198.99174	-1864.59058	67.98534	148.59570	-2062.04248	21.82921	208.66228	-2094.56006	36.71739	174.54219	-2065.82471	10.46879	109.34395
1491	5.96000	-2093.41431	959.97424	223.05208	0.00000	0.00000	0.00000	-2268.72949	718.75977	359.84430	0.00000	0.00000	0.00000	-2205.93018	684.18732	352.07315	0.00000	0.00000	0.00000	-2413.28345	456.32425	307.24939	0.00000	0.00000	0.00000	-2404.92822	370.66638	323.15604	0.00000	0.00000	0.00000	0.00000	0.00000	0.00000	-2362.60376	310.66919	312.10522	-2469.52905	80.53054	297.56226	-2469.65625	106.69786	212.31813	-2415.27808	35.83310	244.60585	-2608.03345	87.37865	314.24573	-2616.54028	127.16398	266.72656	-2600.37451	93.86578	209.34550	-2092.96509	964.89203	148.04692	0.00000	0.00000	0.00000	-2113.77271	722.04657	4.89097	0.00000	0.00000	0.00000	-2182.02246	714.21295	10.41594	-2182.20947	653.64337	25.96023	-2102.58618	443.25375	73.41365	-2103.28711	445.62866	178.58575	-2046.73022	279.44775	59.01885	0.00000	0.00000	0.00000	0.00000	0.00000	0.00000	-1991.43262	337.72202	58.42555	-1940.43250	85.88374	108.12247	-1942.87292	98.86519	198.76968	-1864.98865	69.22265	148.46451	-2061.99414	21.99823	208.68060	-2094.66260	36.71718	174.46500	-2065.90674	10.41438	109.35440
1492	5.96400	-2098.31226	959.26904	223.37784	0.00000	0.00000	0.00000	0.00000	0.00000	0.00000	0.00000	0.00000	0.00000	-2211.36011	683.50238	352.21881	0.00000	0.00000	0.00000	-2418.72314	454.94476	307.00275	0.00000	0.00000	0.00000	-2410.71289	370.10989	322.66577	0.00000	0.00000	0.00000	0.00000	0.00000	0.00000	-2368.67407	309.04041	310.96188	-2479.55688	80.73346	296.80011	-2478.93457	106.81588	211.50769	-2425.73022	35.34472	244.07315	-2618.17456	89.52854	312.83389	-2624.19629	129.72604	264.80896	-2610.09790	95.99392	208.11238	-2098.32397	964.17078	148.34090	0.00000	0.00000	0.00000	-2118.39111	721.72882	5.10794	-2111.62354	661.72406	17.94067	-2187.78296	713.79742	10.17410	-2179.67871	656.22949	22.15981	-2106.26099	442.95016	73.35259	-2107.43091	445.20877	178.54213	-2049.10059	279.34052	58.94604	0.00000	0.00000	0.00000	0.00000	0.00000	0.00000	-1994.20361	338.26251	58.35230	-1940.99109	86.64713	107.95833	-1943.53406	99.74522	198.53879	-1865.46362	70.53148	148.33897	-2062.09351	22.02008	208.65891	-2094.74146	36.54203	174.54132	-2065.93750	10.39543	109.34309
1493	5.96800	-2103.88525	958.65118	223.64423	0.00000	0.00000	0.00000	0.00000	0.00000	0.00000	0.00000	0.00000	0.00000	-2216.88159	683.00201	352.38120	0.00000	0.00000	0.00000	-2424.18579	453.63214	306.71457	0.00000	0.00000	0.00000	-2416.57568	369.54767	322.16809	0.00000	0.00000	0.00000	0.00000	0.00000	0.00000	-2375.18970	307.96402	310.64761	-2488.91260	80.97813	296.01556	-2487.98804	106.94466	210.61024	-2435.80127	34.79052	243.36711	-2627.73804	91.45329	311.49481	-2633.30640	131.64336	263.50745	-2619.55005	97.68963	206.93019	-2103.76440	963.48859	148.62573	0.00000	0.00000	0.00000	-2123.09570	721.40228	5.35026	0.00000	0.00000	0.00000	-2191.36328	713.14899	10.62797	-2191.27563	652.57098	25.98547	-2109.95459	442.66858	73.40300	-2111.74487	444.70135	178.44463	-2051.60156	279.26135	58.94737	0.00000	0.00000	0.00000	0.00000	0.00000	0.00000	-1997.17773	338.83749	58.37016	-1941.66516	87.46628	107.79988	-1944.43884	100.60210	198.31479	-1865.99512	71.96761	148.12219	-2062.15649	22.07931	208.65486	-2094.83691	36.33910	174.65144	-2065.92871	10.37228	109.33132
